<svg xmlns="http://www.w3.org/2000/svg" width="18.681" height="15.182" viewBox="0 0 18.681 15.182"><path d="M22.255,12.123a7.626,7.626,0,0,1-2.2.6,3.84,3.84,0,0,0,1.685-2.121,7.672,7.672,0,0,1-2.434.931,3.836,3.836,0,0,0-6.53,3.5,10.882,10.882,0,0,1-7.9-4,3.837,3.837,0,0,0,1.186,5.117,3.822,3.822,0,0,1-1.736-.48c0,.016,0,.032,0,.049A3.836,3.836,0,0,0,7.4,19.472a3.853,3.853,0,0,1-1.01.134,3.8,3.8,0,0,1-.721-.069A3.837,3.837,0,0,0,9.248,22.2a7.734,7.734,0,0,1-5.674,1.587A10.9,10.9,0,0,0,20.354,14.6q0-.249-.011-.5A7.763,7.763,0,0,0,22.255,12.123Z" transform="translate(-3.574 -10.326)" fill="#212121"/></svg>