<svg xmlns="http://www.w3.org/2000/svg" width="19.201" height="18.809" viewBox="0 0 19.201 18.809"><path d="M17.715.01H1.494A1.459,1.459,0,0,0,.006,1.434v15.96a1.459,1.459,0,0,0,1.488,1.425H17.715a1.459,1.459,0,0,0,1.492-1.425V1.434A1.459,1.459,0,0,0,17.715.01ZM6.727,14.119H4.805V7.532H6.727ZM5.761,6.591a.938.938,0,1,1,.954-.941.926.926,0,0,1-.279.663.966.966,0,0,1-.676.275Zm8.646,7.528H12.486V10.355c0-.8-.282-1.431-1.4-1.431-1.139,0-1.473.529-1.473,1.431v3.764H7.687V7.532H9.608l.074.618h.031a2.195,2.195,0,0,1,2.123-.787,2.637,2.637,0,0,1,2.573,2.962v3.794Z" transform="translate(-0.006 -0.01)" fill="#212121" fill-rule="evenodd"/></svg>